<svg width="54" height="52" viewBox="0 0 54 52" fill="none" xmlns="http://www.w3.org/2000/svg">
<path d="M0.217773 43.6127V44.8782C0.219783 46.5557 0.887052 48.1639 2.07322 49.35C3.25938 50.5362 4.86759 51.2035 6.54507 51.2055H16.6688C18.3462 51.2035 19.9544 50.5362 21.1406 49.35C22.3268 48.1639 22.994 46.5557 22.9961 44.8782V43.6127C22.9939 41.6271 22.4088 39.6859 21.3132 38.0299C20.2176 36.3739 18.6599 35.0762 16.8333 34.2977C18.342 33.1952 19.4634 31.6438 20.0372 29.8655C20.611 28.0872 20.6077 26.173 20.0278 24.3966C19.448 22.6203 18.3212 21.0728 16.8087 19.9755C15.2963 18.8782 13.4755 18.2873 11.6069 18.2873C9.73831 18.2873 7.91757 18.8782 6.40509 19.9755C4.89261 21.0728 3.76587 22.6203 3.186 24.3966C2.60614 26.173 2.60286 28.0872 3.17664 29.8655C3.75041 31.6438 4.87185 33.1952 6.38056 34.2977C4.55397 35.0762 2.99622 36.3739 1.90064 38.0299C0.805056 39.6859 0.219893 41.6271 0.217773 43.6127ZM5.27961 27.1617C5.27961 25.9103 5.6507 24.687 6.34596 23.6465C7.04121 22.6059 8.0294 21.795 9.18556 21.3161C10.3417 20.8372 11.6139 20.7119 12.8413 20.956C14.0687 21.2001 15.1961 21.8028 16.081 22.6876C16.9659 23.5725 17.5685 24.7 17.8126 25.9273C18.0568 27.1547 17.9315 28.4269 17.4526 29.5831C16.9737 30.7392 16.1627 31.7274 15.1222 32.4227C14.0817 33.1179 12.8583 33.489 11.6069 33.489C9.92943 33.487 8.32122 32.8197 7.13506 31.6336C5.94889 30.4474 5.28162 28.8392 5.27961 27.1617ZM10.3415 36.0199H12.8724C14.8855 36.022 16.8156 36.8225 18.239 38.246C19.6625 39.6695 20.4631 41.5996 20.4651 43.6127V44.8782C20.4651 45.885 20.0652 46.8506 19.3532 47.5626C18.6412 48.2746 17.6756 48.6745 16.6688 48.6745H6.54507C5.53821 48.6745 4.57259 48.2746 3.86063 47.5626C3.14867 46.8506 2.74869 45.885 2.74869 44.8782V43.6127C2.7507 41.5996 3.5513 39.6695 4.97478 38.246C6.39826 36.8225 8.32835 36.022 10.3415 36.0199Z" fill="#E3AB45"/>
<path d="M26.0433 19.2614L26.5913 21.452C26.6687 21.7604 26.8223 22.0444 27.0381 22.2779C27.2539 22.5115 27.5249 22.6871 27.8262 22.7886C28.1275 22.8901 28.4495 22.9143 28.7626 22.859C29.0758 22.8037 29.37 22.6706 29.6182 22.4719L34.4827 18.5806C34.7068 18.4023 34.9846 18.3046 35.271 18.3035H45.7744C46.7812 18.3035 47.7469 17.9035 48.4588 17.1916C49.1708 16.4796 49.5707 15.514 49.5707 14.5071V4.38343C49.5707 3.37657 49.1708 2.41094 48.4588 1.69899C47.7469 0.987026 46.7812 0.587051 45.7744 0.587051H22.9961C21.9892 0.587051 21.0236 0.987026 20.3116 1.69899C19.5997 2.41094 19.1997 3.37657 19.1997 4.38343V14.5071C19.1997 15.514 19.5997 16.4796 20.3116 17.1916C21.0236 17.9035 21.9892 18.3035 22.9961 18.3035H24.8158C25.0979 18.3035 25.3719 18.3978 25.5943 18.5713C25.8167 18.7449 25.9748 18.9878 26.0433 19.2614ZM22.9961 15.7726C22.6605 15.7726 22.3386 15.6392 22.1013 15.4019C21.864 15.1646 21.7306 14.8427 21.7306 14.5071V4.38343C21.7306 4.04781 21.864 3.72594 22.1013 3.48862C22.3386 3.2513 22.6605 3.11797 22.9961 3.11797H45.7744C46.11 3.11797 46.4319 3.2513 46.6692 3.48862C46.9065 3.72594 47.0398 4.04781 47.0398 4.38343V14.5071C47.0398 14.8427 46.9065 15.1646 46.6692 15.4019C46.4319 15.6392 46.11 15.7726 45.7744 15.7726H35.271C34.4089 15.7728 33.5726 16.0665 32.8996 16.6052L28.8058 19.8803L28.4983 18.6477C28.2929 17.8265 27.8189 17.0975 27.1517 16.5766C26.4845 16.0557 25.6623 15.7727 24.8158 15.7726H22.9961Z" fill="#E3AB45"/>
<path d="M49.5707 28.4272H29.3234C28.3165 28.4272 27.3509 28.8272 26.6389 29.5391C25.927 30.2511 25.527 31.2167 25.527 32.2236V42.3472C25.527 43.3541 25.927 44.3197 26.6389 45.0317C27.3509 45.7436 28.3165 46.1436 29.3234 46.1436H37.2958C37.5827 46.1445 37.8609 46.2421 38.0854 46.4208L42.9498 50.312C43.1983 50.511 43.4928 50.6443 43.8062 50.6996C44.1196 50.755 44.442 50.7306 44.7435 50.6288C45.0451 50.5269 45.3162 50.3509 45.5319 50.1169C45.7477 49.8829 45.9011 49.5984 45.9781 49.2896L46.5235 47.1028C46.5918 46.829 46.7497 46.5858 46.9721 46.412C47.1946 46.2382 47.4687 46.1437 47.751 46.1436H49.5707C50.5776 46.1436 51.5432 45.7436 52.2552 45.0317C52.9671 44.3197 53.3671 43.3541 53.3671 42.3472V32.2236C53.3671 31.2167 52.9671 30.2511 52.2552 29.5391C51.5432 28.8272 50.5776 28.4272 49.5707 28.4272ZM50.8362 42.3472C50.8362 42.6829 50.7029 43.0047 50.4655 43.2421C50.2282 43.4794 49.9063 43.6127 49.5707 43.6127H47.751C46.9039 43.6123 46.081 43.8952 45.4132 44.4164C44.7455 44.9377 44.2712 45.6672 44.066 46.4891L43.7597 47.7204L39.666 44.4454C38.9933 43.9069 38.1574 43.6132 37.2958 43.6127H29.3234C28.9877 43.6127 28.6659 43.4794 28.4285 43.2421C28.1912 43.0047 28.0579 42.6829 28.0579 42.3472V32.2236C28.0579 31.8879 28.1912 31.5661 28.4285 31.3287C28.6659 31.0914 28.9877 30.9581 29.3234 30.9581H49.5707C49.9063 30.9581 50.2282 31.0914 50.4655 31.3287C50.7029 31.5661 50.8362 31.8879 50.8362 32.2236V42.3472Z" fill="#E3AB45"/>
<path d="M29.3234 10.7107H39.4471C39.7827 10.7107 40.1046 10.5774 40.3419 10.3401C40.5792 10.1028 40.7125 9.78091 40.7125 9.44528C40.7125 9.10966 40.5792 8.78779 40.3419 8.55047C40.1046 8.31315 39.7827 8.17982 39.4471 8.17982H29.3234C28.9878 8.17982 28.6659 8.31315 28.4286 8.55047C28.1912 8.78779 28.0579 9.10966 28.0579 9.44528C28.0579 9.78091 28.1912 10.1028 28.4286 10.3401C28.6659 10.5774 28.9878 10.7107 29.3234 10.7107Z" fill="#E3AB45"/>
<path d="M44.5089 36.0199H34.3852C34.0496 36.0199 33.7277 36.1533 33.4904 36.3906C33.2531 36.6279 33.1198 36.9498 33.1198 37.2854C33.1198 37.621 33.2531 37.9429 33.4904 38.1802C33.7277 38.4175 34.0496 38.5508 34.3852 38.5508H44.5089C44.8445 38.5508 45.1664 38.4175 45.4037 38.1802C45.641 37.9429 45.7744 37.621 45.7744 37.2854C45.7744 36.9498 45.641 36.6279 45.4037 36.3906C45.1664 36.1533 44.8445 36.0199 44.5089 36.0199Z" fill="#E3AB45"/>
</svg>
