<svg width="55" height="55" viewBox="0 0 55 55" fill="none" xmlns="http://www.w3.org/2000/svg">
<path d="M36.0545 26.584L39.0611 23.4191C43.3111 25.2502 47.6968 24.4364 50.9521 21.2037C54.3657 17.7901 54.9761 11.9124 54.0944 7.93367C54.0266 7.61718 53.8005 7.36851 53.484 7.27808C53.1676 7.18765 52.8511 7.27808 52.625 7.50414L45.0744 15.0773C44.9162 15.2356 44.7353 15.3034 44.5093 15.3034C44.3058 15.3034 44.1024 15.213 43.9441 15.0773L40.101 11.2116C39.7845 10.8951 39.7845 10.3978 40.101 10.0813L47.6968 2.4403C47.9229 2.21423 48.0133 1.89774 47.9229 1.58125C47.8324 1.26476 47.5838 1.03869 47.2899 0.970875C43.2207 0.0214037 37.2752 0.586565 33.839 4.02275C30.5837 7.23287 29.7925 11.6637 31.601 15.9138L28.3683 18.8526L13.5836 4.00014C13.448 3.8645 13.2897 3.79668 13.1315 3.75147L1.21789 1.53604C0.92401 1.46822 0.630126 1.58125 0.404061 1.78471C0.200603 2.01077 0.132784 2.30466 0.200603 2.59854L3.11684 13.8566C3.16205 14.0148 3.22987 14.1504 3.3429 14.2635L17.7658 28.7542L9.22058 35.7848C8.83627 36.1013 8.79106 36.6439 9.10755 37.0056C9.2884 37.209 9.53708 37.3221 9.78575 37.3221C9.9892 37.3221 10.1701 37.2543 10.3509 37.1186L19.0092 29.975L25.6555 36.6665L11.3004 52.2423C10.9613 52.5136 8.13547 54.4804 4.26977 50.6147C0.517094 46.8168 2.59689 44.0814 2.86817 43.7875L5.71658 41.233C6.07829 40.9165 6.10089 40.3513 5.7844 39.9896C5.46791 39.6279 4.90275 39.6053 4.54105 39.9218L1.62481 42.499C1.6022 42.5216 1.5796 42.5442 1.55699 42.5668C0.268423 43.9684 -1.11057 47.7211 2.9812 51.8354C5.21924 54.0735 7.25382 54.7291 8.85888 54.7291C11.0291 54.7291 12.4081 53.5535 12.4307 53.5309C12.4533 53.5083 12.4759 53.4857 12.4985 53.4631L26.8536 37.9098L41.5252 52.6719C42.8816 54.0509 44.7127 54.7969 46.6343 54.7969C48.5558 54.7969 50.387 54.0509 51.7434 52.6719C54.5692 49.8461 54.5692 45.2343 51.7434 42.4085L36.0545 26.584ZM33.2513 16.7728C33.5451 16.5015 33.613 16.0946 33.4547 15.7329C31.6236 11.9802 32.234 8.0467 35.0598 5.22089C36.9135 3.36716 40.7792 1.80731 45.2553 2.37248L38.8351 8.81532C37.8404 9.81 37.8404 11.4151 38.8351 12.4097L42.6782 16.2755C43.1529 16.7502 43.7859 17.0215 44.4867 17.0215C45.1649 17.0215 45.7978 16.7502 46.2952 16.2755L52.625 9.92304C53.0771 14.3087 51.5173 18.1066 49.6862 19.9377C46.8604 22.7861 42.9494 23.3965 39.2194 21.5428C38.8803 21.3845 38.4734 21.4523 38.2021 21.7236L34.7885 25.2954L29.589 20.0733L33.2513 16.7728ZM50.5452 51.4285C49.5053 52.4684 48.1263 53.0336 46.6795 53.0336C45.2101 53.0336 43.8537 52.4684 42.8138 51.4285L4.76711 13.1784L2.23519 3.5028L12.5211 5.42435L50.5452 43.6519C52.6928 45.7769 52.6928 49.2809 50.5452 51.4285Z" fill="#E3AB45"/>
<path d="M11.7977 11.1212C11.4586 10.7821 10.8935 10.7821 10.5544 11.1212C10.2153 11.4603 10.2153 12.0254 10.5544 12.3645L44.4867 46.4325C44.6675 46.6133 44.8936 46.6812 45.0971 46.6812C45.3231 46.6812 45.5492 46.5907 45.7074 46.4325C46.0465 46.0934 46.0465 45.5282 45.7074 45.1891L11.7977 11.1212Z" fill="#E3AB45"/>
</svg>
