<svg width="45" height="59" viewBox="0 0 45 59" fill="none" xmlns="http://www.w3.org/2000/svg">
<path d="M22.5648 6.39723C26.9924 6.39723 31.0032 8.19307 33.9067 11.0939L33.961 11.1534C36.8308 14.0516 38.6034 18.0396 38.6034 22.4356C38.6034 26.8632 36.8075 30.874 33.9067 33.7775C31.0059 36.6783 26.9947 38.4741 22.5648 38.4741C18.1373 38.4741 14.1265 36.6783 11.223 33.7775C8.32218 30.8767 6.52634 26.8655 6.52634 22.4356C6.52634 18.0107 8.32218 14 11.2256 11.0964C14.1265 8.19304 18.135 6.39723 22.5648 6.39723ZM24.6557 15.4543L25.9599 18.1248C25.9884 18.1817 26.022 18.2257 26.0608 18.2541L26.0893 18.2748L26.2135 18.3111L29.1557 18.7277C29.6034 18.7898 30.0044 18.9709 30.3305 19.2452C30.6566 19.5195 30.9076 19.8844 31.0447 20.3114C31.1844 20.7358 31.1974 21.1757 31.0939 21.5897C30.9929 22.0038 30.773 22.3867 30.4521 22.6973L28.3146 24.7623C28.2706 24.8089 28.237 24.8554 28.2241 24.902C28.2085 24.9512 28.206 25.0081 28.2163 25.0728L28.7313 27.9969C28.8089 28.4394 28.7597 28.8742 28.6019 29.2675C28.4414 29.6634 28.1697 30.0128 27.8023 30.2793L27.7635 30.3078C27.409 30.5536 27.0105 30.6933 26.6068 30.7218C26.185 30.7502 25.7554 30.6623 25.3569 30.4527L22.6916 29.0398C22.6528 29.0243 22.6114 29.0165 22.57 29.0165C22.5156 29.0165 22.4613 29.0294 22.4121 29.0553L19.7209 30.4863C19.3431 30.6727 18.9368 30.7503 18.5383 30.7218C18.1139 30.6934 17.6999 30.5407 17.3376 30.2793L17.2703 30.225C16.9391 29.9688 16.6933 29.6376 16.5432 29.2675C16.3853 28.8742 16.3361 28.4369 16.4138 27.997L16.9313 25.0547C16.9391 24.9978 16.9365 24.9461 16.921 24.9047C16.9054 24.8581 16.8744 24.8089 16.833 24.7675L14.6981 22.7025C14.372 22.3868 14.1547 22.0064 14.0512 21.595L14.0382 21.538C13.9503 21.1395 13.9658 20.7203 14.1003 20.3114C14.2401 19.8845 14.4885 19.5196 14.8145 19.2453C15.1406 18.971 15.5417 18.7924 15.9842 18.7277L18.9315 18.3111C18.9911 18.3033 19.0454 18.2826 19.0868 18.2516L19.1127 18.2335L19.1877 18.1222L20.5437 15.3585C20.7404 15.0014 21.0147 14.709 21.3485 14.502C21.7107 14.2717 22.1351 14.15 22.5828 14.15C23.0305 14.15 23.4523 14.2742 23.8146 14.4994C24.1794 14.7245 24.4744 15.0531 24.6711 15.4568L24.6557 15.4543ZM24.1744 18.9943L22.8701 16.3238C22.8391 16.2617 22.7977 16.21 22.7485 16.1815C22.7019 16.153 22.6372 16.1349 22.5648 16.1349C22.4923 16.1349 22.4276 16.153 22.381 16.1815C22.3422 16.2022 22.3086 16.2384 22.2801 16.2824L20.9578 18.9917C20.8051 19.3074 20.5878 19.574 20.3212 19.7887L20.2358 19.8586C19.9357 20.0759 19.5811 20.2183 19.1904 20.2752L16.2508 20.6918C16.1783 20.7022 16.1188 20.7281 16.0748 20.7643C16.0308 20.8005 15.9946 20.8549 15.9739 20.9221C15.9532 20.9842 15.9506 21.0438 15.9584 21.0955L15.9636 21.1084C15.9765 21.1654 16.0101 21.2223 16.0593 21.2689L18.1942 23.3339C18.4788 23.6082 18.6807 23.9342 18.7971 24.2862C18.9084 24.6277 18.9369 24.9926 18.8773 25.3627L18.3572 28.3334C18.3443 28.4058 18.352 28.4731 18.3727 28.5274C18.3908 28.5714 18.4193 28.6128 18.4607 28.6465L18.4918 28.6672C18.5487 28.7086 18.6134 28.7344 18.6677 28.737C18.7169 28.7396 18.7712 28.7319 18.823 28.7086L21.4728 27.3009C21.8247 27.1171 22.1947 27.024 22.5622 27.024C22.8986 27.024 23.235 27.1016 23.5585 27.2569L26.2782 28.6931C26.3403 28.7267 26.4024 28.7396 26.4619 28.7371C26.5162 28.7345 26.5706 28.7164 26.6223 28.6827L26.643 28.6672C26.6974 28.6284 26.7362 28.5792 26.7569 28.5275C26.7776 28.4731 26.7854 28.4058 26.7724 28.3334L26.2601 25.4092C26.1928 25.0211 26.2212 24.6433 26.3351 24.2888C26.4515 23.9342 26.6534 23.6108 26.9329 23.3417L29.0703 21.2741C29.1221 21.2249 29.1557 21.168 29.1687 21.1136C29.1816 21.0593 29.179 20.992 29.1557 20.9221C29.135 20.8549 29.0988 20.8005 29.0548 20.7643C29.0108 20.7255 28.9487 20.6996 28.8788 20.6918L25.9418 20.2752C25.5899 20.2261 25.2664 20.1018 24.9818 19.9155L24.8964 19.8612C24.5936 19.6412 24.3452 19.3488 24.1744 18.9969L24.1744 18.9943ZM9.96805 40.5783L4.74349 49.6274L10.6616 48.9339C11.1222 48.8822 11.5465 49.1539 11.7018 49.5705L14.2015 55.134L20.456 44.3016L17.6277 42.8214C17.4724 42.7412 17.3171 42.6791 17.1541 42.6351C16.9937 42.5911 16.8255 42.5678 16.6521 42.5601L13.3269 42.4203C12.605 42.3919 11.9347 42.1978 11.3473 41.8588L11.2878 41.82C10.7703 41.5095 10.3226 41.0902 9.96805 40.5753L9.96805 40.5783ZM22.4149 44.8688L14.9729 57.7608C14.8745 57.9548 14.7089 58.1153 14.4967 58.211C13.9973 58.4336 13.4099 58.2084 13.1873 57.709L10.1675 50.9884L3.00703 51.8268C2.8026 51.8475 2.59041 51.8087 2.39633 51.6974C1.92279 51.4232 1.76235 50.8176 2.03664 50.3441L8.76716 38.6862L8.05556 37.5606C7.97016 37.4338 7.87701 37.3199 7.77867 37.2216C7.65187 37.1 7.5199 36.9939 7.37758 36.9033L6.44862 36.3185C5.98542 36.0261 5.84827 35.4102 6.14068 34.947C6.4331 34.4838 7.04897 34.3467 7.51216 34.6391L8.43853 35.2265C8.72318 35.4102 8.96643 35.6043 9.17863 35.8139C9.37271 36.0131 9.55126 36.2305 9.71428 36.4789L11.5464 39.3642C11.7508 39.6877 12.0044 39.9413 12.2916 40.1147L12.3382 40.1405C12.6487 40.3191 13.0084 40.4226 13.4018 40.4381L16.7269 40.5779C17.0608 40.5908 17.3687 40.6374 17.6637 40.715C17.9561 40.7926 18.246 40.9091 18.5409 41.0644L21.4883 42.6066C21.8351 42.7877 22.1999 42.8783 22.5622 42.8783C22.9245 42.8783 23.292 42.7877 23.6361 42.6066L26.5835 41.0644C26.8811 40.9091 27.1683 40.7952 27.4607 40.715C27.7557 40.6374 28.0637 40.5934 28.3975 40.5779L31.7227 40.4381C32.116 40.4226 32.4757 40.3191 32.7863 40.1405C33.0942 39.9646 33.3633 39.7032 33.5755 39.3642L35.3558 36.554C35.5189 36.3004 35.6948 36.0778 35.8889 35.876L35.9458 35.8139C36.1373 35.6224 36.3599 35.4439 36.6135 35.2782L39.4962 33.4462C39.8197 33.2443 40.0732 32.9907 40.2492 32.7035L40.2751 32.6569C40.4536 32.3464 40.5571 31.9867 40.5727 31.5908L40.7098 28.2682C40.7228 27.9343 40.7693 27.6264 40.847 27.3314C40.9246 27.039 41.041 26.7492 41.1963 26.4542L42.7386 23.5068C42.9197 23.16 43.0103 22.7952 43.0103 22.4329C43.0103 22.0706 42.9197 21.7031 42.7386 21.359L41.1937 18.4116C41.0436 18.1244 40.9298 17.8345 40.8496 17.5344C40.7719 17.242 40.7253 16.9314 40.7124 16.5976L40.5753 13.2724C40.5597 12.8791 40.4562 12.5194 40.2777 12.2088C40.0991 11.8983 39.8378 11.6292 39.5065 11.4196L39.3098 11.2954C38.8466 11.0056 38.7069 10.3923 38.9993 9.92908C39.2891 9.46588 39.9024 9.32615 40.3656 9.61856L40.5623 9.74277C41.173 10.1283 41.6543 10.6303 41.9933 11.2178C42.3323 11.8052 42.5264 12.4754 42.5549 13.1974L42.692 16.5226C42.6998 16.696 42.7231 16.8641 42.767 17.0246C42.8085 17.1773 42.8731 17.3325 42.956 17.4981L44.493 20.4455C44.8294 21.0899 44.9977 21.7627 44.9977 22.4355C44.9977 23.1083 44.8294 23.781 44.493 24.4254L42.9508 27.3728C42.8706 27.5281 42.8085 27.6833 42.7645 27.8463C42.7205 28.0068 42.6972 28.175 42.6894 28.3484L42.5523 31.6709C42.5238 32.3929 42.3297 33.0632 41.9907 33.6506L41.9519 33.7101C41.6129 34.2716 41.1445 34.7503 40.5597 35.123L37.6951 36.9395C37.5735 37.0223 37.4597 37.1155 37.3536 37.2216L37.307 37.2656C37.2087 37.3691 37.1181 37.4881 37.0327 37.6201L36.3573 38.6863L43.0905 50.3467C43.3622 50.8203 43.1992 51.4258 42.7256 51.6976C42.5367 51.8062 42.3245 51.8451 42.1201 51.8218L34.9597 50.9859L31.9398 57.7065C31.7173 58.206 31.1298 58.4285 30.6304 58.2085C30.4156 58.1128 30.2526 57.9524 30.1543 57.7583L22.7123 44.8663L22.5622 44.8689L22.4121 44.8663L22.4149 44.8688ZM24.6713 44.3047L30.9258 55.1371L33.4255 49.5735C33.5808 49.1569 34.0051 48.8852 34.4658 48.937L40.3864 49.6305L35.1593 40.5761C34.7892 41.1117 34.3209 41.5464 33.7775 41.8596C33.1926 42.2012 32.5224 42.3952 31.7979 42.4237L28.4727 42.5634C28.2967 42.5712 28.1311 42.5945 27.9707 42.6385C27.8076 42.6825 27.6498 42.7446 27.4971 42.8248L24.6688 44.305L24.6713 44.3047ZM35.9668 9.07012C35.5709 8.69232 35.5554 8.06352 35.9306 7.66758C36.3084 7.27165 36.9372 7.25613 37.3331 7.63135L37.4418 7.73486C37.8377 8.11266 37.8532 8.74145 37.478 9.1374C37.1002 9.53332 36.4714 9.54884 36.0755 9.17363L35.9668 9.07012ZM4.92758 32.7813C5.21481 33.2471 5.0699 33.8578 4.60412 34.145C4.13833 34.4323 3.52763 34.2873 3.24039 33.8216L3.16018 33.6922C2.87294 33.2264 3.01786 32.6157 3.48364 32.3284C3.94943 32.0412 4.56012 32.1861 4.84736 32.6519L4.92758 32.7813ZM4.43333 28.6151C4.45403 29.1611 4.02965 29.6217 3.48364 29.645C2.93763 29.6657 2.47704 29.2413 2.45372 28.6953L2.44079 28.3537C2.43302 28.1803 2.40973 28.0121 2.36574 27.8517C2.32175 27.6887 2.25964 27.5308 2.17943 27.3782L0.637171 24.4308C0.300771 23.7864 0.132568 23.1136 0.132568 22.4408C0.132568 21.768 0.300771 21.0926 0.637171 20.4509L2.17943 17.5061C2.26223 17.3405 2.32693 17.1826 2.36574 17.0299C2.40973 16.8695 2.43302 16.7013 2.44079 16.5279L2.57793 13.2053C2.6064 12.4834 2.80048 11.8131 3.13947 11.2257L3.17828 11.1662C3.51468 10.6047 3.98568 10.1234 4.57049 9.75333L7.43507 7.93933C7.55669 7.85652 7.67055 7.76337 7.77665 7.65727C7.89827 7.53565 8.00436 7.40368 8.09493 7.25877L9.9141 4.38644C10.2919 3.80938 10.7784 3.34877 11.3477 3.02013C11.9325 2.67855 12.6027 2.48448 13.3273 2.45601L16.6525 2.31627C16.8285 2.30851 16.9941 2.28522 17.1545 2.24123C17.3175 2.19724 17.4754 2.13513 17.6281 2.05492L20.5754 0.51266C21.2172 0.17626 21.8926 0.00805664 22.5654 0.00805664C23.2382 0.00805664 23.9136 0.17626 24.5553 0.51266L27.5027 2.05492C27.658 2.13513 27.8132 2.19724 27.9763 2.24123C28.1367 2.28263 28.3023 2.30851 28.4783 2.31627L31.8035 2.45601C32.5254 2.48448 33.1957 2.67856 33.7831 3.01755L33.8426 3.05636C34.4041 3.39535 34.8854 3.86376 35.2555 4.45116L35.4625 4.77721C35.7523 5.24041 35.6152 5.85369 35.152 6.14352C34.6888 6.43334 34.0755 6.29619 33.7856 5.83299L33.5786 5.50694C33.3768 5.18865 33.1232 4.93506 32.8359 4.7591L32.7894 4.73322C32.4788 4.55467 32.1192 4.45116 31.7258 4.43563L28.4006 4.2959C28.0668 4.28296 27.7589 4.23638 27.4639 4.15875C27.1714 4.08111 26.8816 3.96467 26.5866 3.80941L23.6392 2.26715C23.2925 2.08601 22.9276 1.99544 22.5653 1.99544C22.203 1.99544 21.8356 2.08601 21.4914 2.26715L18.5441 3.80941C18.2465 3.96468 17.9592 4.08112 17.6668 4.15875C17.3718 4.23638 17.0639 4.28037 16.7301 4.2959L13.4049 4.43563C13.0115 4.45116 12.6519 4.55467 12.3413 4.73322C12.0437 4.90142 11.7875 5.14984 11.578 5.46298L9.76914 8.31981C9.58542 8.60445 9.39134 8.84769 9.18173 9.0599C8.99024 9.25139 8.7677 9.42735 8.51669 9.59555L5.63396 11.4276C5.3105 11.6295 5.05691 11.8831 4.88095 12.1729L4.85508 12.2195C4.67653 12.53 4.57302 12.8897 4.55749 13.283L4.42034 16.6056C4.4074 16.9395 4.36082 17.2474 4.28319 17.5424C4.20298 17.8452 4.08652 18.1324 3.93903 18.4222L2.39419 21.3696C2.21305 21.7164 2.12248 22.0812 2.12248 22.4435C2.12248 22.8058 2.21305 23.1707 2.39419 23.5174L3.93645 26.4648C4.09171 26.7624 4.20816 27.0496 4.28578 27.342C4.36342 27.6344 4.40999 27.9449 4.42293 28.2788L4.43587 28.6204L4.43333 28.6151ZM32.4995 12.5016C29.9584 9.96046 26.4443 8.38713 22.5627 8.38713C18.6837 8.38713 15.1697 9.96046 12.6259 12.5016C10.0822 15.0401 8.51146 18.5542 8.51146 22.4357C8.51146 26.3147 10.0848 29.8287 12.6259 32.3725C15.167 34.9136 18.6811 36.4869 22.5627 36.4869C26.4417 36.4869 29.9556 34.9136 32.4995 32.3725C35.0406 29.8314 36.6139 26.3173 36.6139 22.4357C36.6139 18.5774 35.0612 15.0812 32.5486 12.5453L32.4995 12.4987L32.4995 12.5016Z" fill="#E3AB45"/>
</svg>
