<svg width="41" height="59" viewBox="0 0 41 59" fill="none" xmlns="http://www.w3.org/2000/svg">
<path fill-rule="evenodd" clip-rule="evenodd" d="M10.8892 26.5795H30.2946C32.645 26.5819 34.8986 27.5164 36.561 29.1779C38.2234 30.8395 39.159 33.0926 39.1626 35.4431V46.5052C39.1616 46.6827 39.0904 46.8527 38.9646 46.9779C38.8387 47.1031 38.6684 47.1735 38.4909 47.1737H29.4914L34.9919 42.1209C35.121 42.0048 35.2136 41.8538 35.2587 41.6862C35.3037 41.5186 35.2992 41.3415 35.2457 41.1764C35.1923 41.0113 35.0921 40.8652 34.9573 40.7558C34.8226 40.6464 34.659 40.5784 34.4864 40.56L25.2681 39.4995L21.4111 31.062C21.3402 30.9041 21.2251 30.77 21.0798 30.676C20.9344 30.582 20.765 30.5319 20.5919 30.5319C20.4188 30.5319 20.2493 30.582 20.104 30.676C19.9587 30.77 19.8436 30.9041 19.7726 31.062L15.9163 39.4995L6.69735 40.56C6.52476 40.5784 6.36119 40.6464 6.22643 40.7558C6.09167 40.8652 5.99149 41.0113 5.93801 41.1764C5.88453 41.3415 5.88004 41.5186 5.92508 41.6862C5.97012 41.8538 6.06277 42.0048 6.19182 42.1209L11.6924 47.1737H2.69284C2.60492 47.1738 2.51782 47.1567 2.43653 47.1232C2.35525 47.0897 2.28136 47.0405 2.2191 46.9784C2.15683 46.9163 2.10742 46.8425 2.07367 46.7614C2.03993 46.6802 2.02252 46.5931 2.02243 46.5052V35.4431C2.026 33.0928 2.96142 30.84 4.62358 29.1784C6.28574 27.5168 8.53897 26.5822 10.8892 26.5795ZM21.0333 52.0725L27.8375 55.9108L26.2888 48.254C26.2579 48.1015 26.2672 47.9435 26.3158 47.7956C26.3644 47.6477 26.4506 47.5149 26.5659 47.4104L32.3161 42.1273L24.5534 41.2336C24.3995 41.2163 24.2528 41.159 24.1277 41.0675C24.0027 40.976 23.9038 40.8535 23.8406 40.7121L20.5919 33.607L17.3418 40.7121C17.2787 40.8535 17.1797 40.976 17.0547 41.0675C16.9297 41.159 16.783 41.2163 16.6291 41.2336L8.86641 42.1273L14.6166 47.4104C14.7318 47.515 14.8179 47.6478 14.8663 47.7957C14.9148 47.9436 14.924 48.1015 14.8931 48.254L13.3469 55.9108L20.1473 52.0725C20.2818 51.9959 20.4339 51.9557 20.5887 51.9557C20.7434 51.9557 20.8955 51.9959 21.0301 52.0725H21.0333ZM0.217773 35.4431V46.5052C0.218114 47.1613 0.47905 47.7905 0.943197 48.2543C1.40734 48.7181 2.0367 48.9785 2.69284 48.9783H12.9062L11.1869 57.4884C11.1506 57.6576 11.1646 57.8337 11.2271 57.9951C11.2895 58.1565 11.3977 58.2961 11.5384 58.3968C11.678 58.4989 11.8441 58.5586 12.0167 58.5686C12.1894 58.5786 12.3612 58.5386 12.5117 58.4533L20.5951 53.8938L28.6785 58.4533C28.8133 58.5296 28.9656 58.5696 29.1205 58.5694C29.3115 58.5691 29.4976 58.5088 29.6524 58.3968C29.793 58.2961 29.9012 58.1564 29.9635 57.995C30.0258 57.8336 30.0397 57.6575 30.0033 57.4884L28.2788 48.9783H38.4909C39.1466 48.9773 39.7751 48.7164 40.2388 48.2529C40.7025 47.7893 40.9635 47.1609 40.9647 46.5052V35.4431C40.9608 32.6146 39.8353 29.9032 37.835 27.9034C35.8348 25.9036 33.123 24.7787 30.2946 24.7755H10.8892C8.06051 24.7784 5.34845 25.9031 3.34791 27.9029C1.34736 29.9027 0.221679 32.6144 0.217773 35.4431ZM20.5919 2.63459C22.423 2.6351 24.2128 3.17854 25.7351 4.19622C27.2573 5.21389 28.4436 6.66008 29.144 8.35194C29.8444 10.0438 30.0274 11.9053 29.6698 13.7012C29.3123 15.497 28.4303 17.1466 27.1353 18.4412C25.8404 19.7358 24.1906 20.6173 22.3947 20.9744C20.5987 21.3314 18.7372 21.1479 17.0456 20.447C15.3539 19.7462 13.908 18.5595 12.8908 17.0369C11.8735 15.5144 11.3306 13.7244 11.3306 11.8933C11.3324 9.43789 12.3089 7.08359 14.0454 5.34757C15.7819 3.61155 18.1364 2.63578 20.5919 2.63459ZM20.5919 22.9561C22.7798 22.9557 24.9185 22.3066 26.7375 21.0907C28.5565 19.8749 29.9741 18.147 30.8112 16.1255C31.6482 14.104 31.867 11.8798 31.4399 9.73391C31.0128 7.58807 29.9591 5.61706 28.4118 4.0701C26.8646 2.52314 24.8934 1.4697 22.7475 1.043C20.6016 0.616295 18.3773 0.835487 16.356 1.67286C14.3346 2.51023 12.607 3.92817 11.3915 5.74739C10.176 7.56661 9.5272 9.7054 9.5272 11.8933C9.53076 14.8266 10.6977 17.6387 12.772 19.7126C14.8463 21.7866 17.6586 22.953 20.5919 22.9561Z" fill="#E3AB45"/>
</svg>
