<svg width="43" height="59" viewBox="0 0 43 59" fill="none" xmlns="http://www.w3.org/2000/svg">
<path d="M21.0959 58.0243C20.8075 58.0243 20.5281 57.8801 20.3659 57.6368L3.75784 32.8464C-0.603698 26.3311 -1.00921 18.3109 2.68548 11.3991C6.37116 4.47832 13.2559 0.351074 21.0959 0.351074C28.9358 0.351074 35.8206 4.47832 39.5153 11.3991C43.21 18.3199 42.8044 26.3311 38.4429 32.8464L21.8258 57.6368C21.6546 57.8801 21.3842 58.0243 21.0959 58.0243ZM21.0959 2.09929C13.9137 2.09929 7.60573 5.8841 4.21743 12.2191C0.838134 18.5542 1.2076 25.9075 5.20868 31.8731L21.0959 55.5822L36.983 31.8731C40.9841 25.9075 41.3536 18.5542 37.9653 12.2191C34.586 5.8841 28.278 2.09929 21.0959 2.09929Z" fill="#E3AB45"/>
<path d="M22.5737 32.0804H19.618C19.1764 32.0804 18.807 31.756 18.7529 31.3234L18.5817 29.9987C17.6535 29.7645 16.7794 29.395 15.9593 28.9084L14.896 29.7284C14.5445 29.9987 14.0579 29.9627 13.7425 29.6563L11.6519 27.5657C11.3455 27.2593 11.3094 26.7636 11.5798 26.4122L12.3998 25.3488C11.9132 24.5288 11.5527 23.6547 11.3184 22.7265L9.98474 22.5553C9.5522 22.5012 9.22778 22.1318 9.22778 21.6902V18.7344C9.22778 18.2929 9.5522 17.9234 9.98474 17.8693L11.3184 17.6981C11.5527 16.7699 11.9222 15.8958 12.3998 15.0758L11.5798 14.0124C11.3094 13.661 11.3455 13.1744 11.6519 12.859L13.7425 10.7683C14.0489 10.4619 14.5445 10.4259 14.896 10.6962L15.9593 11.5163C16.7794 11.0296 17.6625 10.6602 18.5817 10.4259L18.7529 9.1012C18.807 8.66865 19.1764 8.34424 19.618 8.34424H22.5737C23.0153 8.34424 23.3848 8.66865 23.4388 9.1012L23.6101 10.4259C24.5382 10.6602 25.4123 11.0296 26.2324 11.5163L27.2957 10.6962C27.6472 10.4259 28.1338 10.4619 28.4492 10.7683L30.5399 12.859C30.8462 13.1654 30.8823 13.661 30.6119 14.0124L29.7919 15.0758C30.2785 15.8958 30.648 16.779 30.8823 17.6981L32.207 17.8693C32.6395 17.9234 32.9639 18.2929 32.9639 18.7344V21.6902C32.9639 22.1318 32.6395 22.5012 32.207 22.5553L30.8823 22.7265C30.648 23.6547 30.2785 24.5288 29.7919 25.3488L30.6119 26.4122C30.8823 26.7636 30.8462 27.2503 30.5399 27.5657L28.4492 29.6563C28.1338 29.9717 27.6472 29.9987 27.2957 29.7284L26.2324 28.9084C25.4123 29.395 24.5292 29.7645 23.6101 29.9987L23.4388 31.3234C23.3848 31.756 23.0153 32.0804 22.5737 32.0804ZM20.384 30.3322H21.8078L21.961 29.1607C22.006 28.7912 22.2944 28.4848 22.6639 28.4127C23.7903 28.1965 24.8446 27.7549 25.7908 27.1151C26.1062 26.8988 26.5207 26.9168 26.8181 27.1421L27.7553 27.863L28.7646 26.8538L28.0437 25.9166C27.8094 25.6192 27.8004 25.2047 28.0166 24.8893C28.6655 23.9431 29.098 22.8887 29.3143 21.7623C29.3864 21.3928 29.6838 21.1135 30.0622 21.0594L31.2337 20.9062V19.4824L30.0622 19.3292C29.6928 19.2841 29.3864 18.9958 29.3143 18.6263C29.098 17.4999 28.6655 16.4455 28.0166 15.4993C27.8004 15.1839 27.8184 14.7694 28.0437 14.472L28.7646 13.5348L27.7553 12.5255L26.8181 13.2465C26.5207 13.4808 26.1062 13.4898 25.7908 13.2735C24.8446 12.6247 23.7903 12.1921 22.6548 11.9759C22.2854 11.9038 22.006 11.6064 21.9519 11.2279L21.7988 10.0564H20.3749L20.2217 11.2279C20.1767 11.5974 19.8883 11.9038 19.5189 11.9759C18.3924 12.1921 17.3381 12.6337 16.3919 13.2735C16.0765 13.4808 15.671 13.4718 15.3646 13.2465L14.4184 12.5255L13.4091 13.5348L14.13 14.472C14.3643 14.7694 14.3733 15.1839 14.157 15.4993C13.5172 16.4455 13.0757 17.4999 12.8594 18.6263C12.7873 18.9958 12.4899 19.2751 12.1114 19.3292L10.9309 19.4824V20.9062L12.1114 21.0594C12.4809 21.1044 12.7873 21.3928 12.8594 21.7623C13.0757 22.8977 13.5172 23.9431 14.157 24.8893C14.3733 25.2047 14.3553 25.6102 14.13 25.9166L13.4091 26.8628L14.4184 27.872L15.3646 27.1511C15.662 26.9168 16.0765 26.9078 16.3919 27.1241C17.3381 27.7729 18.3924 28.2055 19.5189 28.4217C19.8883 28.4938 20.1677 28.7912 20.2217 29.1697L20.384 30.3322Z" fill="#E3AB45"/>
<path d="M21.0959 27.097C17.293 27.097 14.1931 24.0061 14.1931 20.1943C14.1931 16.3914 17.284 13.2915 21.0959 13.2915C24.8987 13.2915 27.9986 16.3914 27.9986 20.1943C27.9986 23.9971 24.8987 27.097 21.0959 27.097ZM21.0959 15.0397C18.2572 15.0397 15.9413 17.3467 15.9413 20.1943C15.9413 23.0329 18.2482 25.3488 21.0959 25.3488C23.9345 25.3488 26.2504 23.0419 26.2504 20.1943C26.2504 17.3557 23.9345 15.0397 21.0959 15.0397Z" fill="#E3AB45"/>
</svg>
