<svg width="62" height="59" viewBox="0 0 62 59" fill="none" xmlns="http://www.w3.org/2000/svg">
<path d="M50.6731 32.3653C50.8575 31.8597 51.4217 31.5981 51.9308 31.7812C52.4399 31.9644 52.7034 32.5246 52.5189 33.0302C51.5828 35.6044 50.1361 37.9378 48.3034 39.9071L48.2461 39.964C46.5304 41.7933 44.4823 43.3078 42.1994 44.409L41.1827 50.4478C40.8209 52.6057 39.8824 54.5974 38.4589 56.011L38.4008 56.0641C37.0703 57.3609 35.3376 58.1628 33.267 58.1628C31.1693 58.1628 29.4165 57.3386 28.079 56.011C26.6516 54.592 25.7132 52.6026 25.3521 50.4478L24.3354 44.409C20.9452 42.7737 18.0772 40.2357 16.0508 37.1112C13.9942 33.9406 12.8001 30.1667 12.8001 26.1187C12.8001 20.5086 15.0915 15.4279 18.7948 11.7494C22.4981 8.06775 27.6171 5.79214 33.267 5.79214C34.3108 5.79214 35.3399 5.87141 36.3465 6.02147C37.3632 6.17385 38.3659 6.40549 39.3439 6.70639C39.8615 6.86415 40.1521 7.40977 39.9933 7.92384C39.8344 8.43791 39.285 8.7265 38.7673 8.56874C37.9002 8.3017 36.9928 8.09392 36.0536 7.95309C35.1485 7.81764 34.2171 7.74684 33.267 7.74684C28.1596 7.74684 23.5334 9.8039 20.1865 13.1277C16.8389 16.4499 14.7683 21.0442 14.7683 26.1187C14.7683 29.7811 15.847 33.1934 17.7045 36.0569C19.5844 38.9543 22.264 41.2946 25.4311 42.766H41.1037C43.2704 41.7602 45.2069 40.3511 46.8133 38.6381L46.8574 38.5865C48.5165 36.8034 49.8269 34.6917 50.6731 32.3653ZM37.2501 18.2537C36.9851 17.6027 36.4767 17.1179 35.8738 16.8647C35.2686 16.61 34.5634 16.583 33.9079 16.8462L31.1081 17.9713C30.6052 18.1729 30.031 17.9321 29.828 17.4326L28.9996 15.3987C28.8562 15.07 28.5912 14.823 28.2789 14.6914C27.955 14.5552 27.5768 14.5414 27.2258 14.6814C26.8763 14.8238 26.6144 15.0939 26.4788 15.4125C26.3416 15.7342 26.3285 16.109 26.4703 16.4576L27.2847 18.4554C27.4877 18.9548 27.2452 19.5251 26.7423 19.7267L23.1141 21.185C22.4593 21.4482 21.9719 21.9538 21.7162 22.5526C21.4597 23.1536 21.4333 23.8554 21.6984 24.5057L22.8305 27.2823C23.0335 27.7818 22.791 28.352 22.2881 28.5536L20.6894 29.1962C20.3384 29.3378 20.0772 29.6072 19.9416 29.9258C19.8045 30.2498 19.7905 30.6253 19.9316 30.9724C20.0734 31.3195 20.3454 31.578 20.667 31.7135C20.9916 31.8497 21.3706 31.8636 21.7216 31.7227L23.3218 31.0801C23.8239 30.8808 24.3943 31.1225 24.5965 31.6196L26.0851 35.2697C26.3533 35.8961 26.8531 36.364 27.4436 36.6126C28.0488 36.8673 28.7539 36.8942 29.4087 36.631C33.0175 35.2527 36.617 33.7167 40.2118 32.2884C40.8635 32.0244 41.3478 31.5219 41.602 30.9247C41.8585 30.3244 41.8848 29.6241 41.6198 28.9738L40.9534 27.3339L40.0204 27.7094C39.1719 28.0503 38.2559 28.0157 37.4694 27.6848C36.6805 27.3531 36.0172 26.7236 35.6731 25.8802C35.3291 25.0367 35.3647 24.1279 35.6979 23.3467C36.0319 22.5633 36.6666 21.9038 37.5151 21.5629L38.4465 21.1889L37.2501 18.2537ZM36.6348 15.07C36.7967 15.1378 36.9541 15.2155 37.1075 15.3017C37.1571 15.1355 37.2152 14.9715 37.2834 14.8122C37.7367 13.7487 38.5976 12.8537 39.7507 12.3904L50.6049 8.03004C51.7409 7.59062 52.9591 7.64295 54.0099 8.08468C55.0808 8.53488 55.9805 9.3891 56.4477 10.535C57.8402 14.1296 59.497 17.7104 60.8376 21.3105C61.2816 22.4402 61.2282 23.6507 60.7841 24.695C60.3308 25.7586 59.4714 26.6513 58.3184 27.1161L55.2714 28.3412C54.7685 28.5429 54.1943 28.302 53.9913 27.8025L53.2295 25.934C53.0869 25.5931 52.8173 25.3376 52.5011 25.2053C52.178 25.069 51.8006 25.0552 51.4496 25.196L51.4255 25.2053C51.0884 25.3476 50.835 25.6154 50.701 25.9286L50.6847 25.964C50.5631 26.2757 50.5553 26.6343 50.6917 26.9683L51.4472 28.8284C51.6479 29.3271 51.4046 29.8935 50.904 30.0943L47.5223 31.4557C46.3685 31.9197 45.1263 31.872 44.0577 31.4226C43.8957 31.3549 43.7384 31.2771 43.585 31.1917C43.5362 31.3579 43.4773 31.5211 43.4091 31.6804C42.9565 32.7432 42.0971 33.6366 40.9441 34.1007L30.0907 38.4626C28.9539 38.9036 27.7342 38.8497 26.6826 38.4072C25.6365 37.967 24.7531 37.1405 24.2773 36.0308L23.1436 33.2549L22.4516 33.5327C21.6046 33.8729 20.6918 33.8375 19.906 33.5081C19.1257 33.1795 18.4685 32.5585 18.1214 31.7258L18.109 31.6973C17.7657 30.8547 17.8013 29.9466 18.1345 29.1662C18.467 28.3913 19.0916 27.7394 19.9292 27.3954L20.6391 27.1099L19.8758 25.2383C19.4093 24.0932 19.4565 22.8581 19.9091 21.7968C20.3624 20.7333 21.2233 19.8383 22.3764 19.375L25.0933 18.283L24.6477 17.1902C24.3044 16.3475 24.3385 15.4387 24.6717 14.6568C25.0057 13.8734 25.6396 13.2146 26.4889 12.8729C27.3413 12.532 28.2541 12.5674 29.0399 12.8968C29.8078 13.22 30.4572 13.8272 30.8082 14.6406L31.2817 15.795L33.1702 15.0362C34.324 14.5721 35.5662 14.6206 36.6348 15.07ZM42.4063 25.7009L43.4416 28.2389C43.7074 28.8907 44.2158 29.3748 44.8186 29.628C45.4238 29.8827 46.129 29.9088 46.7846 29.6457L49.2573 28.6514L48.8458 27.6425C48.5343 26.8367 48.5669 25.9748 48.8706 25.2253L48.8939 25.1652C49.2201 24.4011 49.8346 23.7554 50.6576 23.4075L50.7762 23.3614C51.6076 23.0466 52.4949 23.0882 53.2621 23.4106C54.0339 23.7346 54.6856 24.3449 55.0351 25.1606L55.445 26.1649L57.5783 25.3068C58.2347 25.0429 58.7213 24.538 58.977 23.9393C59.2273 23.3506 59.2583 22.6641 59.0104 22.0246C57.4861 18.4931 56.0479 14.8022 54.6081 11.2268C54.3384 10.5966 53.8394 10.1271 53.2489 9.87932C52.6607 9.63228 51.9773 9.59996 51.338 9.8393L40.4884 14.2004C39.8336 14.4636 39.3462 14.9692 39.0905 15.568C38.834 16.1698 38.8076 16.8701 39.0727 17.5211L40.638 21.3613C40.841 21.8607 40.5985 22.431 40.0955 22.6326L38.2528 23.3729C37.9018 23.5137 37.6406 23.7839 37.505 24.1025C37.3679 24.4234 37.3539 24.7997 37.4957 25.1475C37.6375 25.4954 37.9095 25.7555 38.2303 25.8902C38.5535 26.0264 38.9316 26.0402 39.2827 25.8994L41.1262 25.1583C41.633 24.9582 42.2049 25.2014 42.4063 25.7009ZM18.109 6.76872C18.4825 7.15812 18.4662 7.77609 18.0741 8.14702C17.682 8.51795 17.0597 8.50179 16.6862 8.11239L10.9372 2.13593C10.5637 1.74652 10.5799 1.12856 10.972 0.757629C11.3641 0.386698 11.9864 0.402859 12.3599 0.79226L18.109 6.76872ZM11.8988 16.3237C12.3591 16.6084 12.5009 17.211 12.2142 17.6681C11.9275 18.1252 11.3207 18.2661 10.8604 17.9813L3.60727 13.4986C3.14698 13.2139 3.00517 12.6113 3.29188 12.1542C3.5786 11.697 4.18536 11.5562 4.64565 11.8409L11.8988 16.3237ZM9.87554 25.8863C10.4187 25.8863 10.8597 26.3242 10.8597 26.8637C10.8597 27.4031 10.4187 27.841 9.87554 27.841H1.11671C0.573493 27.841 0.132568 27.4031 0.132568 26.8637C0.132568 26.3242 0.573493 25.8863 1.11671 25.8863H9.87554ZM27.6985 51.7307H38.8355C39.0153 51.2182 39.1525 50.6803 39.2455 50.1277L39.4012 49.2035H27.1336L27.2894 50.1277C27.3823 50.681 27.5195 51.2182 27.6985 51.7307ZM37.8529 53.6854H28.6788C28.9159 54.0286 29.1778 54.3457 29.4653 54.6312C30.4456 55.6039 31.7304 56.2081 33.267 56.2081C34.7773 56.2081 36.0466 55.6232 37.0215 54.6774L37.0672 54.6289C37.3539 54.3442 37.6166 54.0279 37.8529 53.6854ZM26.8043 47.2488H39.7306L40.156 44.7207H26.3788L26.8043 47.2488Z" fill="#E3AB45"/>
</svg>
